Patient4_TMGait_0pt7_01_right_28_EMG.mot
version=1
nRows=19
nColumns=33
inDegrees=no
endheader
time	1LAddLong	2LGlutMax	3LGlutMed	4LIliopsoas	5LSemiMemb	6LBicFemLong	7LRecFem	8LVastMed	9LVastLat	10LGasMed	11LTibAnt	12lTibPost	13LPeroneusLong	14LSol	15LExtDigLong	16LFlexDigLong	17RAddLong	18RGlutMax	19RGlutMed	20RIliopsoas	21RSemiMemb	22RBicFemLong	23RRecFem	24RVastMed	25RVastLat	26RGasMed	27RTibAnt	28RTibPost	29RPeroneusLong	30RSol	31RExtDigLong	32RFlexDigLong
32.923	0.005646	-0.067291	-0.004425	0.005646	0.022278	0.034485	0.098724	-0.017548	0.21423	-0.069733	-0.075378	0.009918	0.23514	-0.31555	-0.1088	-0.014038	0.023804	-0.12497	-0.08194	0.030365	0.045929	0.058899	-0.040741	-0.024872	0.019379	-0.033417	-0.018463	-0.007172	0.00351	-0.089569	0.00061	0.003815
32.924	0.005798	-0.044861	0.07019	0.000916	0.014496	0.10849	0.091095	-0.004578	0.27252	-0.075378	-0.024719	0.011749	-0.2919	-0.54627	-0.05722	-0.005035	0.040588	-0.12161	-0.18249	-0.042877	0.053711	0.12207	-0.062256	-0.063171	0.035706	-0.044556	0.024567	-0.001526	0.23025	-0.086517	-0.001526	-0.000153
32.925	0.010223	-0.039825	0.093231	0.001984	0.009918	0.21378	0.14694	-0.001068	0.29037	0.007782	0.022736	0.00885	-0.28976	-0.5217	0.085602	-0.003052	0.037994	-0.03952	-0.16647	-0.091705	0.090637	0.001526	-0.025787	-0.084686	0.031433	-0.054779	0.13916	-0.001984	0.22293	-0.10208	-0.002289	0.00824
32.926	-0.000305	-0.047455	0.066681	0.020905	0.00885	0.36926	0.21378	0.003662	0.17197	0.016632	-0.039978	0.003357	0.23117	-0.57526	0.15625	-0.00946	0.001984	-0.005493	-0.271	-0.080872	0.082092	-0.10132	-0.046387	-0.070801	0.034027	-0.059357	0.11627	-0.001373	0.05188	-0.098877	-0.003815	0.009003
32.927	0.008392	-0.044403	0.031128	0.017548	-0.004883	0.84671	0.27542	0.003662	-0.15747	0.009918	-0.15991	0.006866	0.00885	-0.58258	0.10819	-0.002441	-0.042419	-0.015411	-0.42664	-0.049896	-0.096436	-0.029755	-0.094757	0.004883	0.050354	-0.070038	-0.17197	-0.002747	-0.036926	-0.098419	0.002136	0.003357
32.928	-0.003662	-0.028687	-0.057678	-0.010986	-0.016174	1.0591	0.20477	0.010986	-0.088806	0.016174	-0.080719	0.007935	-0.05188	-0.11826	0.13702	-0.006866	-0.03479	0.001678	-0.49667	-0.006866	0.05188	0.014648	-0.10727	-0.012665	0.044403	-0.083008	-0.1181	-0.002899	-0.1149	-0.06897	-0.003357	0.006104
32.929	-0.002899	-0.05127	-0.041046	-0.011139	-0.010529	1.0063	0.17822	0.011749	-0.16968	0.041656	-0.13901	0.000153	0.07019	0.23071	0.03891	-0.004578	-0.028534	-0.086212	-0.19592	-0.096893	0.13184	-0.024261	-0.10071	-0.00412	0.027008	-0.082855	-0.052185	-0.00473	-0.077362	-0.048523	-0.003052	0.009308
32.93	-0.00351	-0.072479	0.044861	-0.002136	0.002136	0.60364	0.15747	0.012512	-0.24872	0.045929	-0.19058	0.005188	0.25131	0.30838	-0.11246	-0.003815	-0.003967	-0.10315	0.12909	-0.21927	0.057526	-0.083466	-0.048523	-0.028229	0.019226	-0.066833	0.00412	-0.007019	0.063782	-0.004578	-0.001831	0.006409
32.931	0.003662	-0.033417	-0.015564	-0.001831	0.007019	0.58151	0.055847	0.015411	-0.25299	-0.025024	-0.098877	0.00351	0.25925	0.29419	0.010071	0.010071	-0.005493	-0.11307	0.24689	-0.14023	0.006104	-0.065918	-0.063477	-0.009003	0.032196	-0.03418	0.017548	-0.008698	0.012665	0.005951	0	0.003052
32.932	0.004272	0.013123	-0.059967	0.001373	0.02594	-0.68985	0.034943	0.001221	-0.11429	-0.050507	0.051422	0.002441	0.13779	0.4567	0.30868	0.007629	-0.020447	-0.090637	0.20721	0.022583	-0.020752	-0.017548	-0.062103	-0.00351	0.043182	0.018463	-0.001221	-0.000916	-0.063171	-0.042267	0.000305	0.007629
32.933	0.011292	0.023346	-0.045166	-0.004272	0.036926	-1.2651	0.074615	-0.000916	-0.039063	-0.045624	0.37338	0.001373	-0.33127	0.4985	0.48843	0.012054	-0.001831	-0.058746	0.2211	0.17517	0.016174	0.008698	-0.072479	0.015259	0.048676	0.083771	0.003052	-0.000305	-0.027924	-0.083008	-0.001221	0.006561
32.934	0.009918	0.02594	-0.019684	-0.005341	0.01297	-0.79834	0.1532	-0.001373	-0.020447	-0.01358	0.52307	0.000305	-0.48386	0.44815	0.36514	0.006256	0.025024	-0.10544	-0.11566	0.27283	-0.015106	-0.056152	-0.022736	-0.040436	0.038452	0.14832	-0.024872	-0.003967	-0.036469	-0.041351	-0.002747	0.006256
32.935	-0.000153	0.016022	-0.016479	0.010529	0.006409	-0.74173	0.17136	-0.014038	0.025177	0.029755	0.38895	-0.001373	-0.32822	0.38544	0.10346	0.008087	0.044708	-0.12146	-0.48355	0.33157	-0.015259	-0.082397	-0.014038	-0.029755	0.032043	0.22888	-0.02121	-0.003815	-0.01236	-0.033875	-0.007629	0.008392
32.936	0.004578	0.037689	-0.060425	0.033264	-0.005798	-0.47546	0.18097	-0.004425	0.059967	-0.022888	-0.071411	0.001068	0.083008	0.31387	-0.14954	0.00412	0.055695	-0.12634	-0.70587	0.20401	0.020599	0.006561	-0.016785	-0.045929	0.033264	0.23789	-0.004272	-0.003662	0.060272	-0.062714	-0.002441	-0.001984
32.937	-0.003967	0.053101	-0.070648	0.025635	0.019836	-0.37064	0.22247	-0.005798	0.032654	-0.030823	-0.23605	-0.001068	1.0805	0.36789	-0.2121	0.011444	0.046692	-0.12878	-0.38971	0.14313	0.04364	0.15106	-0.018768	-0.014343	0.035706	0.18143	0.02533	-0.002747	0.10147	-0.070038	-0.000305	-0.002441
32.938	0.012207	0.077057	-0.054932	0.021057	0.049744	-0.41794	0.19409	-0.000153	0.009613	0.058289	-0.14923	-0.002441	0.42297	0.17761	-0.34668	-0.006256	0.009918	-0.10941	-0.52902	0.12634	-0.0177	0.18784	-0.02243	-0.014801	0.018158	0.087738	0.031586	-0.007782	0.047455	-0.059814	-0.002136	-0.003052
32.939	0.021973	0.084534	-0.030975	0.023804	0.057068	-0.12802	0.20599	-0.000916	0.015564	0.083313	-0.13138	-0.003662	0.032501	-0.014496	-0.37491	-0.022736	-0.004883	-0.077515	-0.34088	-0.036316	-0.015564	0.051575	-0.039215	0.024109	0.049286	0.016785	0.034332	-0.010223	-0.008087	-0.057831	-0.003662	-0.006561
32.94	0.016937	0.079041	-0.054474	0.021057	0.042877	-0.21439	0.26642	-0.005798	0.026093	0.003815	-0.1062	-0.002289	-0.039215	0.024567	-0.14694	-0.008698	0.004272	0.024109	0.83756	-0.12116	-0.15411	-0.12375	-0.016632	-0.006866	0.0383	-0.01709	0.003357	-0.010223	-0.039368	-0.076752	-0.003662	-0.008087
32.941	0.006866	0.092163	-0.063934	0.013275	0.042114	-0.083466	0.20233	0.011139	0.011597	-0.014801	-0.007629	-0.002594	-0.27115	0.080414	0.033112	-0.015564	0.020752	-0.016937	1.235	-0.10071	-0.2179	-0.2121	-0.022125	-0.057068	0.013123	0.06424	-0.050964	-0.011749	-0.067444	-0.043793	-0.003357	-0.009003
